<svg xmlns="http://www.w3.org/2000/svg" viewBox="0 0 2603.84 1016.4" style="width: 50%"><defs><style>.cls-1,.cls-5{fill:#92ca66;}.cls-1,.cls-2{fill-rule:evenodd;}.cls-2,.cls-4{fill:#00a6da;}.cls-3{fill:#231f20;}</style></defs><g id="Layer_2" data-name="Layer 2"><g id="Capa_1" data-name="Capa 1"><path class="cls-1" d="M562.7,635.71c.15-8.66-2.24-12-11.43-12.85-46.17-4.2-78.29-28.13-95.52-71.21a66.63,66.63,0,0,1-4.46-23.09c-.55-29.49-.06-59-.56-88.49-.08-4.76-2.28-10.18-5.16-14.08-9.17-12.42-8.23-27.69,3.14-37.4,10.68-9.11,25.88-8.09,35.76,2.39,9.46,10,8.3,25.54-2,36.76a19.84,19.84,0,0,0-5,11.91c-.4,29.83-1.49,59.73.21,89.46,1.44,25.33,17.09,43.59,38.29,55.83,10.63,6.13,23.37,8.79,35.38,12.25,7.35,2.11,11.35-.31,11.31-9.45"/><path class="cls-1" d="M607.57,586.07c-.14-7,2-9.66,10.2-10.33,41.2-3.38,69.86-22.62,85.24-57.26a49,49,0,0,0,4-18.56c.48-23.71,0-47.44.49-71.15.08-3.84,2-8.19,4.61-11.32,8.18-10,7.35-22.27-2.8-30.08a24.58,24.58,0,0,0-31.91,1.92c-8.45,8.08-7.41,20.54,1.75,29.56,2.47,2.45,4.43,6.33,4.47,9.58.37,24,1.33,48-.18,71.93-1.28,20.36-15.25,35-34.17,44.89-9.48,4.93-20.85,7.07-31.57,9.85-6.56,1.69-10.13-.25-10.1-7.6"/><path class="cls-2" d="M1058.54,305.64c-11.33,2.94-20.54,8.25-24.18,5.68-7.8-5.52-16.44-14.35-18.18-23.13-8.75-44-23.64-85.29-49.75-121.74C903.78,79,815.75,45.42,711.11,48.27c-7.62.21-16.07,3.64-22.59,1.29-8.67-3.13-15.82-10.47-23.62-16,6-8.36,10.34-21.07,18.35-24.12,13-5,28.45-4.51,42.9-4.79C883.86,1.71,1018.4,106.54,1053.53,260,1056.76,274.1,1056.8,289,1058.54,305.64Z"/><path class="cls-2" d="M898,158c25.58,19.54,53.78,66.54,64,124.58,2.63,14.87,2.52,29-16,31.61-15.72,2.26-23.34-8.29-25.78-22.8C903.09,189.46,815.93,130.07,717,140.61c-14.9,1.59-27.31-2-28-18.44-.74-16.2,10.11-23.32,26.24-24.9C771.54,91.75,828.53,107.27,898,158Z"/><path class="cls-2" d="M864,317.17c-7.1,2.06-15.9,7.62-20.22,5.2-7.45-4.19-15.34-12.51-17.4-20.54-9.17-35.77-29.68-59.75-66-68.2-10.93-2.54-23.39.69-33.89-2.65-8.29-2.64-14.67-11.3-21.9-17.29,6.12-7.38,11-19.5,18.54-21.39C784,177,863.51,237.29,866.05,299.4,866.25,304.48,864.89,309.61,864,317.17Z"/></g><g id="Capa_2" data-name="Capa 2"><path class="cls-3" d="M960.78,665.4v88.14q0,48.54-4.88,71.18T935,867q-16,19.66-41.09,29t-57.62,9.36q-36.34,0-61.56-8t-39.19-24.14q-14-16.12-19.93-39t-6-68.74v-92.2q0-50.17,10.84-78.37t39-45.29q28.2-17.08,72.14-17.09,36.87,0,63.32,11t40.81,28.61q14.37,17.63,19.66,36.34T960.78,665.4ZM851.22,638.29q0-27.66-3-34.85t-12.75-7.19q-9.75,0-13,7.19t-3.26,34.85V800.72q0,25.5,3.26,33.22t12.74,7.73q9.76,0,12.88-7t3.12-30.37Z"/><path class="cls-3" d="M1223.56,539,1172.3,898.89H1029.12L974.07,539h97.84l30.83,262.78q3.63-29,12.36-141.24,4.65-62.66,10.62-121.54Z"/><path class="cls-3" d="M1490.4,539V898.89H1378.94l1.9-29.9q-11.38,18.21-28.07,27.31t-38.37,9.1q-24.68,0-41-8.68t-24-23.05a84.26,84.26,0,0,1-9.62-30q-1.9-15.6-1.9-62V539h109.55V783.91q0,42,2.58,49.9t14,7.86q12.2,0,14.51-8.13t2.3-52.34V539Z"/><path class="cls-3" d="M1753.44,654h-97.08V634.49q0-24.94-2.85-31.59t-14.23-6.65q-9.22,0-13.83,6.1t-4.61,18.31q0,16.55,2.3,24.27t13.83,17q11.52,9.23,47.32,26.85,47.73,23.32,62.65,43.93t14.91,59.93q0,43.93-11.39,66.3t-38.1,34.44q-26.71,12.06-64.41,12.07-41.76,0-71.45-13t-40.81-35.25q-11.13-22.23-11.12-67.25V772.52h97.08V795.3q0,29,3.66,37.69t14.51,8.68q11.65,0,16.27-5.83t4.61-24.54q0-25.75-6-32.27-6.24-6.51-63.72-38.51-48.29-27.12-58.85-49.22t-10.58-52.47q0-43.12,11.39-63.59t38.65-31.6q27.26-11.11,63.32-11.12,35.79,0,60.88,9.09t38.51,24q13.41,14.91,16.27,27.66t2.84,39.86Z"/><path class="cls-4" d="M527.59,365.74l107.66-37.67v584.4S337.65,927.89,92.48,559.36c0,0-188.12-269.84-27.75-481.09,0,0,194.28-219,542.77,75.56,0,0,299.14,260.59,229.75,524.27,0,0-27.76,123.35-171.16,143.4,0,0,235.92-52.43,128-333.06,0,0-78.64-220.51-322.27-346.95,0,0-214.33-111-323.81-3.08,0,0-126.44,146.49,117.19,414.79,0,0,134.28,148.46,263.81,196.26Z"/><path class="cls-5" d="M57,534.55s31.18,90.87,146,189l-2.58,139.57L57,912.57Z"/><path class="cls-5" d="M297.38,448.32V570s-79.53-84.21-81.07-93.46Z"/><path class="cls-5" d="M328.75,435.54V599.3s41.63,33.93,70.93,47.8V411.62Z"/><path d="M1341.07,946v-7.47h41.85V946h-17V1015h-7.79V946Z"/><path d="M1391.81,958.45h7.27v26.38q0,9.66,1,13.29a14.8,14.8,0,0,0,6,8.21,18.06,18.06,0,0,0,10.48,3,17.76,17.76,0,0,0,10.33-2.93,15.1,15.1,0,0,0,5.85-7.71q1.1-3.29,1.09-13.87V958.45h7.43v27.73q0,11.69-2.73,17.6a20.85,20.85,0,0,1-8.21,9.28q-5.47,3.35-13.73,3.34t-13.79-3.34a20.69,20.69,0,0,1-8.26-9.35q-2.73-6-2.72-18.05Z"/><path d="M1486.84,958.45h7.27v10.12a30.62,30.62,0,0,1,9.66-8.7A23.79,23.79,0,0,1,1515.3,957a20.09,20.09,0,0,1,11.25,3.22,19.21,19.21,0,0,1,7.24,8.68q2.34,5.45,2.34,17V1015h-7.27V988q0-9.76-.81-13a14.31,14.31,0,0,0-4.85-8.44,14.67,14.67,0,0,0-9.35-2.83,18,18,0,0,0-11.81,4.36,20.46,20.46,0,0,0-6.89,10.81q-1,4.2-1,15.37V1015h-7.27Z"/><path d="M1550.78,958.45h7.27v26.38q0,9.66,1,13.29a14.8,14.8,0,0,0,6,8.21,18.08,18.08,0,0,0,10.48,3,17.76,17.76,0,0,0,10.33-2.93,15.1,15.1,0,0,0,5.85-7.71q1.1-3.29,1.09-13.87V958.45h7.43v27.73q0,11.69-2.73,17.6a20.85,20.85,0,0,1-8.21,9.28q-5.47,3.35-13.73,3.34t-13.79-3.34a20.69,20.69,0,0,1-8.26-9.35q-2.73-6-2.72-18.05Z"/><path d="M1663.94,996.2l6.13,3.22a33.25,33.25,0,0,1-7,9.56,27.54,27.54,0,0,1-8.89,5.53,31,31,0,0,1-11.17,1.89q-13.83,0-21.63-9.06a30.6,30.6,0,0,1-7.79-20.49,30.22,30.22,0,0,1,6.6-19.16q8.37-10.7,22.4-10.7,14.46,0,23.08,11,6.13,7.74,6.24,19.32H1621.1q.2,9.84,6.29,16.14a20,20,0,0,0,15,6.3,23.94,23.94,0,0,0,8.4-1.51,21.73,21.73,0,0,0,6.94-4A33.76,33.76,0,0,0,1663.94,996.2Zm0-15.21a24,24,0,0,0-4.24-9.3,20,20,0,0,0-7.36-5.61,22.5,22.5,0,0,0-9.62-2.13,20.68,20.68,0,0,0-14.29,5.35q-4.38,3.9-6.61,11.69Z"/><path d="M1680.14,958.45h7.74l19,41.19,18.74-41.19h7.79l-25.87,56.5h-1.35Z"/><path d="M1800.73,958.45V1015h-7.16v-9.71a31.28,31.28,0,0,1-10.26,8.36,28.69,28.69,0,0,1-32.93-5.89,29.19,29.19,0,0,1-8.49-21.17,28.64,28.64,0,0,1,8.57-20.87,27.94,27.94,0,0,1,20.62-8.68,26.67,26.67,0,0,1,12.59,3,28.79,28.79,0,0,1,9.9,8.88V958.45Zm-29,5.55a22,22,0,0,0-19.38,11.36,22.92,22.92,0,0,0,0,22.83,22.27,22.27,0,0,0,8.22,8.48,21.52,21.52,0,0,0,11.08,3,22.75,22.75,0,0,0,11.3-3,21,21,0,0,0,8.23-8.15A23.23,23.23,0,0,0,1794,987a22.51,22.51,0,0,0-6.46-16.39A21.42,21.42,0,0,0,1771.68,964Z"/><path d="M1843.79,958.45h7.42v8.25a26.27,26.27,0,0,1,7-7.29,13.84,13.84,0,0,1,7.69-2.42,13.25,13.25,0,0,1,6.44,1.92l-3.79,6.13a10,10,0,0,0-3.84-1,10.49,10.49,0,0,0-7,3q-3.39,3-5.15,9.27-1.35,4.83-1.35,19.53V1015h-7.42Z"/><path d="M1926.1,996.2l6.13,3.22a33.42,33.42,0,0,1-7,9.56,27.76,27.76,0,0,1-8.89,5.53,31.13,31.13,0,0,1-11.18,1.89q-13.83,0-21.62-9.06a30.56,30.56,0,0,1-7.8-20.49,30.22,30.22,0,0,1,6.6-19.16q8.37-10.7,22.4-10.7,14.46,0,23.08,11,6.14,7.74,6.24,19.32h-50.84q.21,9.84,6.29,16.14a20,20,0,0,0,15,6.3,23.93,23.93,0,0,0,8.39-1.51,21.89,21.89,0,0,0,7-4A33.77,33.77,0,0,0,1926.1,996.2Zm0-15.21a24,24,0,0,0-4.24-9.3,20,20,0,0,0-7.35-5.61,22.54,22.54,0,0,0-9.62-2.13,20.68,20.68,0,0,0-14.3,5.35q-4.36,3.9-6.61,11.69Z"/><path d="M2004.06,936.63V1015h-7.17v-9.71a31.28,31.28,0,0,1-10.26,8.36,28.67,28.67,0,0,1-32.92-5.89,29.19,29.19,0,0,1-8.49-21.17,28.63,28.63,0,0,1,8.56-20.87A27.94,27.94,0,0,1,1974.4,957a26.73,26.73,0,0,1,12.6,3,28.85,28.85,0,0,1,9.89,8.88v-32.2ZM1975,964a22,22,0,0,0-19.38,11.36,22.92,22.92,0,0,0,0,22.83,22.27,22.27,0,0,0,8.22,8.48,21.52,21.52,0,0,0,11.08,3,22.81,22.81,0,0,0,11.31-3,21.05,21.05,0,0,0,8.22-8.15,23.23,23.23,0,0,0,2.88-11.57,22.51,22.51,0,0,0-6.46-16.39A21.42,21.42,0,0,0,1975,964Z"/><path d="M2106.37,936.63V1015h-7.17v-9.71a31.28,31.28,0,0,1-10.26,8.36,28.67,28.67,0,0,1-32.92-5.89,29.15,29.15,0,0,1-8.5-21.17,28.64,28.64,0,0,1,8.57-20.87,27.94,27.94,0,0,1,20.62-8.68,26.73,26.73,0,0,1,12.6,3,28.85,28.85,0,0,1,9.89,8.88v-32.2ZM2077.31,964a22,22,0,0,0-19.38,11.36,22.92,22.92,0,0,0,0,22.83,22.27,22.27,0,0,0,8.22,8.48,21.52,21.52,0,0,0,11.08,3,22.81,22.81,0,0,0,11.31-3,21.05,21.05,0,0,0,8.22-8.15,23.23,23.23,0,0,0,2.88-11.57,22.51,22.51,0,0,0-6.46-16.39A21.42,21.42,0,0,0,2077.31,964Z"/><path d="M2170.4,996.2l6.13,3.22a33.25,33.25,0,0,1-7,9.56,27.6,27.6,0,0,1-8.88,5.53,31.13,31.13,0,0,1-11.18,1.89q-13.83,0-21.63-9.06a30.6,30.6,0,0,1-7.79-20.49,30.22,30.22,0,0,1,6.6-19.16q8.37-10.7,22.4-10.7,14.46,0,23.08,11,6.14,7.74,6.24,19.32h-50.84q.2,9.84,6.29,16.14a20,20,0,0,0,15,6.3,23.94,23.94,0,0,0,8.4-1.51,21.73,21.73,0,0,0,6.94-4A33.76,33.76,0,0,0,2170.4,996.2Zm0-15.21a24,24,0,0,0-4.24-9.3,20,20,0,0,0-7.35-5.61,22.57,22.57,0,0,0-9.62-2.13,20.68,20.68,0,0,0-14.3,5.35q-4.38,3.9-6.61,11.69Z"/><path d="M2223.92,935.18a6,6,0,0,1,0,12,5.7,5.7,0,0,1-4.19-1.77,6,6,0,0,1,0-8.46A5.7,5.7,0,0,1,2223.92,935.18Zm-3.61,23.27h7.27V1015h-7.27Z"/><path d="M2242.69,958.45H2250v10.12a30.62,30.62,0,0,1,9.66-8.7,23.76,23.76,0,0,1,11.53-2.88,20.11,20.11,0,0,1,11.25,3.22,19.21,19.21,0,0,1,7.24,8.68q2.34,5.45,2.34,17V1015h-7.27V988q0-9.76-.81-13a14.31,14.31,0,0,0-4.85-8.44,14.67,14.67,0,0,0-9.35-2.83,18,18,0,0,0-11.82,4.36,20.45,20.45,0,0,0-6.88,10.81q-1,4.2-1,15.37V1015h-7.27Z"/><path d="M2313.89,937.47h7.28v21h11.53v6.28h-11.53V1015h-7.28V964.73H2304v-6.28h9.91Z"/><path d="M2391.17,996.2l6.13,3.22a33.42,33.42,0,0,1-7,9.56,27.76,27.76,0,0,1-8.89,5.53,31.13,31.13,0,0,1-11.18,1.89q-13.83,0-21.62-9.06a30.56,30.56,0,0,1-7.8-20.49,30.22,30.22,0,0,1,6.6-19.16q8.37-10.7,22.4-10.7,14.46,0,23.08,11,6.14,7.74,6.24,19.32h-50.84q.21,9.84,6.29,16.14a20,20,0,0,0,15,6.3,23.93,23.93,0,0,0,8.39-1.51,21.73,21.73,0,0,0,6.94-4A33.76,33.76,0,0,0,2391.17,996.2Zm0-15.21a24,24,0,0,0-4.24-9.3,20,20,0,0,0-7.35-5.61A22.54,22.54,0,0,0,2370,964a20.68,20.68,0,0,0-14.3,5.35q-4.36,3.9-6.61,11.69Z"/><path d="M2410,958.45h7.43v8.25a26,26,0,0,1,7-7.29,13.84,13.84,0,0,1,7.69-2.42,13.31,13.31,0,0,1,6.44,1.92l-3.79,6.13a10.1,10.1,0,0,0-3.85-1,10.51,10.51,0,0,0-7,3q-3.37,3-5.14,9.27-1.35,4.83-1.35,19.53V1015H2410Z"/><path d="M2444.72,958.45H2452v10.12a30.62,30.62,0,0,1,9.66-8.7,23.73,23.73,0,0,1,11.53-2.88,20.08,20.08,0,0,1,11.24,3.22,19.14,19.14,0,0,1,7.24,8.68q2.34,5.45,2.34,17V1015h-7.27V988q0-9.76-.81-13a14.31,14.31,0,0,0-4.85-8.44,14.67,14.67,0,0,0-9.35-2.83,18,18,0,0,0-11.81,4.36,20.39,20.39,0,0,0-6.88,10.81q-1.05,4.2-1,15.37V1015h-7.27Z"/><path d="M2557.15,996.2l6.13,3.22a33.42,33.42,0,0,1-7,9.56,27.76,27.76,0,0,1-8.89,5.53,31.09,31.09,0,0,1-11.18,1.89q-13.83,0-21.62-9.06a30.56,30.56,0,0,1-7.8-20.49,30.22,30.22,0,0,1,6.6-19.16q8.37-10.7,22.41-10.7,14.44,0,23.07,11,6.14,7.74,6.24,19.32h-50.84q.21,9.84,6.29,16.14a20.06,20.06,0,0,0,15,6.3,23.93,23.93,0,0,0,8.39-1.51,21.78,21.78,0,0,0,6.95-4A33.77,33.77,0,0,0,2557.15,996.2Zm0-15.21a24.18,24.18,0,0,0-4.23-9.3,20.11,20.11,0,0,0-7.36-5.61,22.54,22.54,0,0,0-9.62-2.13,20.7,20.7,0,0,0-14.3,5.35q-4.36,3.9-6.6,11.69Z"/><path d="M2585,937.47h7.27v21h11.53v6.28h-11.53V1015H2585V964.73h-9.92v-6.28H2585Z"/><path class="cls-5" d="M1797.44,623.19h35.47V672.6q21.28-28.38,47.14-42.44a115.76,115.76,0,0,1,56.25-14.07q30.92,0,54.86,15.71a93.57,93.57,0,0,1,35.35,42.32q11.4,26.61,11.4,82.87v141.9h-35.47V767.37q0-47.62-4-63.6-6.16-27.36-23.65-41.18t-45.62-13.81q-32.19,0-57.66,21.29T1838,722.78q-5.07,20.52-5.07,75V898.89h-35.47Z"/><path class="cls-5" d="M2346.05,807.41l29.9,15.71q-14.7,28.89-34,46.63a135.11,135.11,0,0,1-43.37,27q-24.1,9.24-54.54,9.25-67.47,0-105.51-44.22t-38-100q0-52.45,32.21-93.51,40.83-52.2,109.31-52.2,70.51,0,112.61,53.47,29.93,37.77,30.44,94.27H2137q1,48,30.69,78.75T2241,873.3a117.9,117.9,0,0,0,41-7.32q19.92-7.32,33.87-19.44T2346.05,807.41Zm0-74.24q-7.1-28.38-20.68-45.36t-35.9-27.37a109.88,109.88,0,0,0-46.93-10.39q-40.61,0-69.77,26.1-21.33,19-32.23,57Z"/><path class="cls-5" d="M2482.13,520.81h35.48V623.19h56.25v30.66h-56.25v245h-35.48v-245h-48.4V623.19h48.4Z"/><path class="cls-3" d="M710,674.93q0-50.16,10.85-78.37t39-45.29q28.2-17.09,72.14-17.08,36.87,0,63.32,11t40.81,28.61q14.37,17.64,19.66,36.34t5.29,57L851.57,640q0-27.66-3-34.85t-12.75-7.18q-9.76,0-13,7.18T819.57,640Z"/></g></g></svg>